
<!--Original code-->
<!--<svg width="321.8971405029297" height="64.8" xmlns="http://www.w3.org/2000/svg">
    <g id="view-cube-icon" transform="matrix(0.8365066019139222,0,0,0.8365066019139222,-5.152969489816068,-9.425755299037425)" fill="#50c0ff">
        <g>
            <path d="M44.846,19.268c0.384,0,0.768-0.146,1.061-0.439l2.439-2.439v13.879c0,0.829,0.671,1.5,1.5,1.5s1.5-0.671,1.5-1.5V16.389   l2.439,2.439c0.293,0.293,0.677,0.439,1.061,0.439s0.768-0.146,1.061-0.439c0.586-0.585,0.586-1.536,0-2.121l-4.998-4.998   c-0.14-0.14-0.307-0.251-0.493-0.328c-0.007-0.003-0.015-0.004-0.022-0.007c-0.17-0.067-0.354-0.106-0.548-0.106   s-0.378,0.04-0.548,0.106c-0.007,0.003-0.015,0.004-0.022,0.007c-0.186,0.077-0.353,0.188-0.493,0.328l-4.998,4.998   c-0.586,0.585-0.586,1.536,0,2.121C44.078,19.122,44.462,19.268,44.846,19.268z"></path>
            <polygon points="50,36.823 30.629,46.508 49.836,56.086 68.919,46.282  "></polygon>
            <polygon points="28.5,74.427 48.346,84.35 48.346,58.696 28.5,48.799  "></polygon>
            <polygon points="51.346,84.504 71.5,74.427 71.5,48.329 51.346,58.684  "></polygon>
            <path d="M21.648,76.439l-11.71,6.154l0.912-3.587c0.204-0.804-0.281-1.62-1.084-1.824c-0.805-0.202-1.619,0.281-1.823,1.084   l-1.742,6.852c-0.008,0.031-0.008,0.062-0.014,0.095c-0.01,0.053-0.02,0.105-0.024,0.16c-0.004,0.048-0.003,0.095-0.002,0.143   c0,0.049,0.002,0.098,0.007,0.147c0.006,0.05,0.017,0.099,0.027,0.147c0.01,0.046,0.02,0.092,0.035,0.137   c0.017,0.052,0.039,0.101,0.061,0.15c0.013,0.029,0.021,0.06,0.036,0.089c0.005,0.009,0.013,0.016,0.018,0.024   c0.008,0.014,0.012,0.03,0.021,0.044c0.055,0.092,0.121,0.176,0.194,0.254c0.019,0.021,0.04,0.036,0.059,0.055   c0.069,0.067,0.145,0.127,0.228,0.181c0.028,0.018,0.056,0.036,0.086,0.053c0.068,0.037,0.14,0.067,0.214,0.095   c0.026,0.01,0.052,0.021,0.079,0.028c0.015,0.005,0.028,0.012,0.042,0.016c0.006,0.002,0.011,0.005,0.018,0.007l6.854,1.744   c0.125,0.031,0.249,0.046,0.371,0.046c0.67,0,1.28-0.451,1.453-1.13c0.205-0.803-0.281-1.619-1.083-1.824l-3.066-0.78l11.231-5.902   c0.733-0.386,1.016-1.293,0.63-2.026C23.289,76.336,22.382,76.057,21.648,76.439z"></path>
            <path d="M93.845,85.419c-0.001-0.019-0.007-0.036-0.008-0.054c-0.005-0.052-0.014-0.101-0.022-0.151   c-0.006-0.031-0.007-0.063-0.015-0.096l-1.742-6.852c-0.204-0.803-1.021-1.286-1.824-1.084c-0.803,0.204-1.288,1.021-1.084,1.824   l0.921,3.623l-12.038-6.196c-0.736-0.376-1.641-0.089-2.021,0.647c-0.379,0.736-0.089,1.641,0.647,2.021l11.48,5.909l-3.018,0.768   c-0.803,0.205-1.288,1.021-1.084,1.824c0.173,0.679,0.783,1.13,1.453,1.13c0.122,0,0.247-0.015,0.371-0.046l6.854-1.744   c0.007-0.002,0.013-0.005,0.02-0.007c0.016-0.005,0.029-0.012,0.045-0.017c0.105-0.032,0.203-0.075,0.296-0.127   c0.027-0.015,0.053-0.031,0.079-0.048c0.089-0.058,0.171-0.122,0.244-0.195c0.015-0.015,0.031-0.026,0.045-0.042   c0.085-0.092,0.156-0.195,0.216-0.305c0.006-0.01,0.015-0.018,0.02-0.027c0.014-0.026,0.021-0.055,0.032-0.082   c0.022-0.05,0.044-0.101,0.061-0.153c0.014-0.044,0.023-0.089,0.033-0.134c0.011-0.05,0.021-0.099,0.026-0.149   c0.006-0.049,0.007-0.097,0.008-0.145C93.841,85.48,93.846,85.45,93.845,85.419z"></path>
        </g>
    </g>
    <g id="cad-text" transform="matrix(2.500000066227385,0,0,2.500000066227385,90.7500008940697,0.49999675485814166)" fill="#50c0ff">
        <path d="M12.96 18.5 c-1.24 1.12 -2.9 1.7 -4.76 1.7 c-3.92 0 -7.3 -2.94 -7.3 -7.2 s3.38 -7.2 7.3 -7.2 c1.84 0 3.48 0.6 4.68 1.66 l-1.76 1.98 c-0.74 -0.52 -1.74 -0.9 -2.76 -0.9 c-2.52 0 -4.42 1.86 -4.42 4.46 s1.9 4.46 4.42 4.46 c1.06 0 2.1 -0.4 2.86 -1 z M26.04 20 l-1.06 -2.5 l-6.76 0 l-1.06 2.5 l-3.1 0 l6.22 -14 l2.64 0 l6.24 14 l-3.12 0 z M19.240000000000002 15.120000000000001 l4.72 0 l-2.36 -5.54 z M35.760000000000005 6 c3.98 0 7.1 3.12 7.1 6.92 c0 3.96 -3.12 7.08 -7.1 7.08 l-5 0 l0 -14 l5 0 z M35.74 17.240000000000002 c2.68 0 4.12 -1.94 4.12 -4.32 c0 -2.22 -1.44 -4.16 -4.12 -4.16 l-2.06 0 l0 8.48 l2.06 0 z"></path>
    </g>
    <g id="flair-text" transform="matrix(2.5714285714285716,0,0,2.5714285714285716,201.91428497859408,-0.4285714285714306)" fill="#2b2b2b">
        <path d="M8.96 6.52 l-7.18 0 l0 6.18 l5.94 0 l0 0.5 l-5.94 0 l0 6.8 l-0.58 0 l0 -14 l7.76 0 l0 0.52 z M11.44 19.42 l6.94 0 l0 0.58 l-7.52 0 l0 -14 l0.58 0 l0 13.42 z M31.799999999999997 20 l-1.78 -3.98 l-8.04 0 l-1.78 3.98 l-0.62 0 l6.26 -14 l0.3 0 l6.28 14 l-0.62 0 z M22.22 15.46 l7.56 0 l-3.78 -8.46 z M34.6 6 l0 14 l-0.58 0 l0 -14 l0.58 0 z M46.66 20 l-0.72 0 l-4.08 -5.38 c-0.2 0.02 -0.4 0.02 -0.6 0.02 l-3.68 0 l0 5.36 l-0.58 0 l0 -14 l4.26 0 c3.14 0 4.8 1.94 4.8 4.3 c0 2.08 -1.22 3.8 -3.56 4.24 z M37.58 14.04 l3.76 0 c2.52 0 4.14 -1.46 4.14 -3.74 c0 -2.32 -1.62 -3.72 -4.14 -3.72 l-3.76 0 l0 7.46 z"></path>
    </g>
</svg>-->

<svg width="342.3524949334045" height="54.75685486629158" viewBox="0 0 342.3524949334045 54.75685486629158" xmlns="http://www.w3.org/2000/svg">
	<g class="view-cube-icon" transform="matrix(0.7068591141311017,0,0,0.7068591141311017,-4.35432719883159,-7.9648875758421465)" fill="#50c0ff">
		<g>
			<path d="M44.846,19.268c0.384,0,0.768-0.146,1.061-0.439l2.439-2.439v13.879c0,0.829,0.671,1.5,1.5,1.5s1.5-0.671,1.5-1.5V16.389   l2.439,2.439c0.293,0.293,0.677,0.439,1.061,0.439s0.768-0.146,1.061-0.439c0.586-0.585,0.586-1.536,0-2.121l-4.998-4.998   c-0.14-0.14-0.307-0.251-0.493-0.328c-0.007-0.003-0.015-0.004-0.022-0.007c-0.17-0.067-0.354-0.106-0.548-0.106   s-0.378,0.04-0.548,0.106c-0.007,0.003-0.015,0.004-0.022,0.007c-0.186,0.077-0.353,0.188-0.493,0.328l-4.998,4.998   c-0.586,0.585-0.586,1.536,0,2.121C44.078,19.122,44.462,19.268,44.846,19.268z"></path>
			<polygon points="50,36.823 30.629,46.508 49.836,56.086 68.919,46.282  "></polygon>
			<polygon points="28.5,74.427 48.346,84.35 48.346,58.696 28.5,48.799  "></polygon>
			<polygon points="51.346,84.504 71.5,74.427 71.5,48.329 51.346,58.684  "></polygon>
			<path d="M21.648,76.439l-11.71,6.154l0.912-3.587c0.204-0.804-0.281-1.62-1.084-1.824c-0.805-0.202-1.619,0.281-1.823,1.084   l-1.742,6.852c-0.008,0.031-0.008,0.062-0.014,0.095c-0.01,0.053-0.02,0.105-0.024,0.16c-0.004,0.048-0.003,0.095-0.002,0.143   c0,0.049,0.002,0.098,0.007,0.147c0.006,0.05,0.017,0.099,0.027,0.147c0.01,0.046,0.02,0.092,0.035,0.137   c0.017,0.052,0.039,0.101,0.061,0.15c0.013,0.029,0.021,0.06,0.036,0.089c0.005,0.009,0.013,0.016,0.018,0.024   c0.008,0.014,0.012,0.03,0.021,0.044c0.055,0.092,0.121,0.176,0.194,0.254c0.019,0.021,0.04,0.036,0.059,0.055   c0.069,0.067,0.145,0.127,0.228,0.181c0.028,0.018,0.056,0.036,0.086,0.053c0.068,0.037,0.14,0.067,0.214,0.095   c0.026,0.01,0.052,0.021,0.079,0.028c0.015,0.005,0.028,0.012,0.042,0.016c0.006,0.002,0.011,0.005,0.018,0.007l6.854,1.744   c0.125,0.031,0.249,0.046,0.371,0.046c0.67,0,1.28-0.451,1.453-1.13c0.205-0.803-0.281-1.619-1.083-1.824l-3.066-0.78l11.231-5.902   c0.733-0.386,1.016-1.293,0.63-2.026C23.289,76.336,22.382,76.057,21.648,76.439z"></path>
			<path d="M93.845,85.419c-0.001-0.019-0.007-0.036-0.008-0.054c-0.005-0.052-0.014-0.101-0.022-0.151   c-0.006-0.031-0.007-0.063-0.015-0.096l-1.742-6.852c-0.204-0.803-1.021-1.286-1.824-1.084c-0.803,0.204-1.288,1.021-1.084,1.824   l0.921,3.623l-12.038-6.196c-0.736-0.376-1.641-0.089-2.021,0.647c-0.379,0.736-0.089,1.641,0.647,2.021l11.48,5.909l-3.018,0.768   c-0.803,0.205-1.288,1.021-1.084,1.824c0.173,0.679,0.783,1.13,1.453,1.13c0.122,0,0.247-0.015,0.371-0.046l6.854-1.744   c0.007-0.002,0.013-0.005,0.02-0.007c0.016-0.005,0.029-0.012,0.045-0.017c0.105-0.032,0.203-0.075,0.296-0.127   c0.027-0.015,0.053-0.031,0.079-0.048c0.089-0.058,0.171-0.122,0.244-0.195c0.015-0.015,0.031-0.026,0.045-0.042   c0.085-0.092,0.156-0.195,0.216-0.305c0.006-0.01,0.015-0.018,0.02-0.027c0.014-0.026,0.021-0.055,0.032-0.082   c0.022-0.05,0.044-0.101,0.061-0.153c0.014-0.044,0.023-0.089,0.033-0.134c0.011-0.05,0.021-0.099,0.026-0.149   c0.006-0.049,0.007-0.097,0.008-0.145C93.841,85.48,93.846,85.45,93.845,85.419z"></path>
		</g>
	</g>
	<g class="cad-text" transform="matrix(2.851919599836089,0,0,2.851919599836089,79.4332734480685,-9.541136942812287)" fill="#50c0ff">
		<path d="M12.96 18.5 c-1.24 1.12 -2.9 1.7 -4.76 1.7 c-3.92 0 -7.3 -2.94 -7.3 -7.2 s3.38 -7.2 7.3 -7.2 c1.84 0 3.48 0.6 4.68 1.66 l-1.76 1.98 c-0.74 -0.52 -1.74 -0.9 -2.76 -0.9 c-2.52 0 -4.42 1.86 -4.42 4.46 s1.9 4.46 4.42 4.46 c1.06 0 2.1 -0.4 2.86 -1 z M26.04 20 l-1.06 -2.5 l-6.76 0 l-1.06 2.5 l-3.1 0 l6.22 -14 l2.64 0 l6.24 14 l-3.12 0 z M19.240000000000002 15.120000000000001 l4.72 0 l-2.36 -5.54 z M35.760000000000005 6 c3.98 0 7.1 3.12 7.1 6.92 c0 3.96 -3.12 7.08 -7.1 7.08 l-5 0 l0 -14 l5 0 z M35.74 17.240000000000002 c2.68 0 4.12 -1.94 4.12 -4.32 c0 -2.22 -1.44 -4.16 -4.12 -4.16 l-2.06 0 l0 8.48 l2.06 0 z"></path>
	</g>
	<g class="flair-text" transform="matrix(2.933402939265621,0,0,2.933402939265621,205.47991563362794,-10.600417635593725)" fill="#ffffff">
		<path d="M8.96 6.52 l-7.18 0 l0 6.18 l5.94 0 l0 0.5 l-5.94 0 l0 6.8 l-0.58 0 l0 -14 l7.76 0 l0 0.52 z M11.44 19.42 l6.94 0 l0 0.58 l-7.52 0 l0 -14 l0.58 0 l0 13.42 z M31.799999999999997 20 l-1.78 -3.98 l-8.04 0 l-1.78 3.98 l-0.62 0 l6.26 -14 l0.3 0 l6.28 14 l-0.62 0 z M22.22 15.46 l7.56 0 l-3.78 -8.46 z M34.6 6 l0 14 l-0.58 0 l0 -14 l0.58 0 z M46.66 20 l-0.72 0 l-4.08 -5.38 c-0.2 0.02 -0.4 0.02 -0.6 0.02 l-3.68 0 l0 5.36 l-0.58 0 l0 -14 l4.26 0 c3.14 0 4.8 1.94 4.8 4.3 c0 2.08 -1.22 3.8 -3.56 4.24 z M37.58 14.04 l3.76 0 c2.52 0 4.14 -1.46 4.14 -3.74 c0 -2.32 -1.62 -3.72 -4.14 -3.72 l-3.76 0 l0 7.46 z"></path>
	</g>
</svg>